STARTFONT 2.1
FONT -FontForge-Comic Sans MS-Book-R-Normal-SansMS-17-120-100-100-P-95-ISO10646-1
SIZE 12 100 100
FONTBOUNDINGBOX 18 21 -1 -5
COMMENT "Generated by fontforge, http://fontforge.sourceforge.net"
COMMENT "(c) 2018 Microsoft Corporation. All Rights Reserved."
STARTPROPERTIES 39
FOUNDRY "FontForge"
FAMILY_NAME "Comic Sans MS"
WEIGHT_NAME "Book"
SLANT "R"
SETWIDTH_NAME "Normal"
ADD_STYLE_NAME "SansMS"
PIXEL_SIZE 17
POINT_SIZE 120
RESOLUTION_X 100
RESOLUTION_Y 100
SPACING "P"
AVERAGE_WIDTH 95
CHARSET_REGISTRY "ISO10646"
CHARSET_ENCODING "1"
FONTNAME_REGISTRY ""
CHARSET_COLLECTIONS "ISO10646-1"
FONT_NAME "ComicSansMS"
FACE_NAME "Comic Sans MS"
COPYRIGHT "(c) 2018 Microsoft Corporation. All Rights Reserved."
FONT_VERSION "5.14"
FONT_ASCENT 14
FONT_DESCENT 3
UNDERLINE_POSITION -3
UNDERLINE_THICKNESS 2
X_HEIGHT 8
CAP_HEIGHT 12
RAW_ASCENT 799
RAW_DESCENT 200
NORM_SPACE 5
RELATIVE_WEIGHT 40
RELATIVE_SETWIDTH 50
SUPERSCRIPT_X 0
SUPERSCRIPT_Y 7
SUPERSCRIPT_SIZE 11
SUBSCRIPT_X 0
SUBSCRIPT_Y 2
SUBSCRIPT_SIZE 11
AVG_LOWERCASE_WIDTH 89
AVG_UPPERCASE_WIDTH 118
ENDPROPERTIES
CHARS 126
STARTCHAR space
ENCODING 32
SWIDTH 298 0
DWIDTH 5 0
BBX 1 1 0 0
BITMAP
00
ENDCHAR
STARTCHAR exclam
ENCODING 33
SWIDTH 237 0
DWIDTH 4 0
BBX 2 15 1 -1
BITMAP
C0
C0
C0
C0
C0
C0
C0
C0
C0
C0
C0
C0
00
C0
C0
ENDCHAR
STARTCHAR quotedbl
ENCODING 34
SWIDTH 424 0
DWIDTH 8 0
BBX 6 5 1 8
BITMAP
CC
CC
CC
CC
CC
ENDCHAR
STARTCHAR numbersign
ENCODING 35
SWIDTH 842 0
DWIDTH 14 0
BBX 14 13 0 0
BITMAP
0630
0630
0630
7FFC
7FFC
0C60
0C60
18C0
FFF8
FFF8
18C0
3180
3180
ENDCHAR
STARTCHAR dollar
ENCODING 36
SWIDTH 693 0
DWIDTH 12 0
BBX 10 18 1 -3
BITMAP
0C00
0C00
1F00
7F80
EC00
CC00
CC00
FF00
3F80
0DC0
0CC0
0CC0
CDC0
FF80
7F00
0C00
0C00
0C00
ENDCHAR
STARTCHAR percent
ENCODING 37
SWIDTH 820 0
DWIDTH 14 0
BBX 13 14 0 0
BITMAP
0080
78C0
FD80
CD80
FF80
7B00
0300
0600
0600
0EF0
0DF8
0D98
19F8
18F0
ENDCHAR
STARTCHAR ampersand
ENCODING 38
SWIDTH 654 0
DWIDTH 11 0
BBX 11 13 0 0
BITMAP
0E00
1F00
1B00
1B00
1E00
1C40
7640
6640
C3C0
C1C0
E1C0
7FC0
3E20
ENDCHAR
STARTCHAR quotesingle
ENCODING 39
SWIDTH 388 0
DWIDTH 7 0
BBX 2 5 2 8
BITMAP
C0
C0
C0
C0
C0
ENDCHAR
STARTCHAR parenleft
ENCODING 40
SWIDTH 366 0
DWIDTH 6 0
BBX 5 18 1 -4
BITMAP
18
38
30
60
60
40
C0
C0
C0
C0
C0
C0
C0
60
60
70
38
18
ENDCHAR
STARTCHAR parenright
ENCODING 41
SWIDTH 366 0
DWIDTH 6 0
BBX 5 18 0 -4
BITMAP
C0
E0
60
30
30
10
18
18
18
18
18
18
18
30
30
70
E0
C0
ENDCHAR
STARTCHAR asterisk
ENCODING 42
SWIDTH 529 0
DWIDTH 9 0
BBX 8 7 0 6
BITMAP
10
10
FF
7E
3C
6C
42
ENDCHAR
STARTCHAR plus
ENCODING 43
SWIDTH 480 0
DWIDTH 8 0
BBX 8 8 0 2
BITMAP
18
18
18
FF
FF
18
18
18
ENDCHAR
STARTCHAR comma
ENCODING 44
SWIDTH 276 0
DWIDTH 5 0
BBX 3 4 1 -3
BITMAP
60
60
C0
C0
ENDCHAR
STARTCHAR hyphen
ENCODING 45
SWIDTH 416 0
DWIDTH 7 0
BBX 5 2 1 4
BITMAP
F8
F8
ENDCHAR
STARTCHAR period
ENCODING 46
SWIDTH 249 0
DWIDTH 4 0
BBX 2 2 1 0
BITMAP
C0
C0
ENDCHAR
STARTCHAR slash
ENCODING 47
SWIDTH 511 0
DWIDTH 9 0
BBX 7 14 1 -1
BITMAP
02
06
06
0C
0C
0C
18
18
30
30
60
60
C0
C0
ENDCHAR
STARTCHAR zero
ENCODING 48
SWIDTH 610 0
DWIDTH 10 0
BBX 9 13 0 0
BITMAP
1E00
3F00
6300
E180
C180
C180
C180
C180
C180
C380
6300
7F00
3E00
ENDCHAR
STARTCHAR one
ENCODING 49
SWIDTH 450 0
DWIDTH 8 0
BBX 6 13 1 0
BITMAP
30
70
F0
B0
30
30
30
30
30
30
30
FC
FC
ENDCHAR
STARTCHAR two
ENCODING 50
SWIDTH 610 0
DWIDTH 10 0
BBX 8 13 1 0
BITMAP
3C
7F
E7
C3
03
06
0C
38
60
C0
C0
FF
FF
ENDCHAR
STARTCHAR three
ENCODING 51
SWIDTH 610 0
DWIDTH 10 0
BBX 8 13 1 0
BITMAP
3C
FE
C3
03
07
3E
3C
07
03
83
C7
7E
3C
ENDCHAR
STARTCHAR four
ENCODING 52
SWIDTH 610 0
DWIDTH 10 0
BBX 10 13 0 0
BITMAP
0300
0700
0F00
0B00
1300
3300
6300
FFC0
FFC0
0300
0300
0300
0300
ENDCHAR
STARTCHAR five
ENCODING 53
SWIDTH 610 0
DWIDTH 10 0
BBX 8 13 1 0
BITMAP
FF
FF
C0
FC
FE
C7
C3
03
03
03
C6
FE
7C
ENDCHAR
STARTCHAR six
ENCODING 54
SWIDTH 610 0
DWIDTH 10 0
BBX 8 13 1 0
BITMAP
0C
1C
38
70
60
FC
FE
C3
C3
C3
E7
7E
3C
ENDCHAR
STARTCHAR seven
ENCODING 55
SWIDTH 610 0
DWIDTH 10 0
BBX 10 13 0 0
BITMAP
FFC0
FFC0
0180
0300
0600
0600
0C00
0C00
1800
1800
1000
3000
3000
ENDCHAR
STARTCHAR eight
ENCODING 56
SWIDTH 610 0
DWIDTH 10 0
BBX 9 13 0 0
BITMAP
3E00
7F80
E180
C180
E380
FF00
7F00
E380
C180
C180
E380
7F00
3E00
ENDCHAR
STARTCHAR nine
ENCODING 57
SWIDTH 610 0
DWIDTH 10 0
BBX 9 14 0 -1
BITMAP
3E00
7F00
E380
C180
C180
C180
E380
7F80
3F00
0300
0600
0E00
7800
6000
ENDCHAR
STARTCHAR colon
ENCODING 58
SWIDTH 298 0
DWIDTH 5 0
BBX 2 8 2 1
BITMAP
C0
C0
00
00
00
00
C0
C0
ENDCHAR
STARTCHAR semicolon
ENCODING 59
SWIDTH 298 0
DWIDTH 5 0
BBX 3 10 1 -1
BITMAP
60
60
00
00
00
00
00
60
C0
C0
ENDCHAR
STARTCHAR less
ENCODING 60
SWIDTH 381 0
DWIDTH 6 0
BBX 5 7 0 2
BITMAP
18
38
70
C0
60
30
18
ENDCHAR
STARTCHAR equal
ENCODING 61
SWIDTH 510 0
DWIDTH 9 0
BBX 6 7 1 2
BITMAP
FC
FC
00
00
00
FC
FC
ENDCHAR
STARTCHAR greater
ENCODING 62
SWIDTH 381 0
DWIDTH 7 0
BBX 6 8 1 1
BITMAP
C0
E0
30
1C
1C
70
E0
80
ENDCHAR
STARTCHAR question
ENCODING 63
SWIDTH 523 0
DWIDTH 10 0
BBX 8 13 1 -1
BITMAP
38
FE
C6
03
03
03
06
1C
30
20
00
60
60
ENDCHAR
STARTCHAR at
ENCODING 64
SWIDTH 931 0
DWIDTH 16 0
BBX 14 15 1 -1
BITMAP
0FC0
1FF0
3878
6018
670C
CE0C
D98C
D98C
DFF8
CEF0
6000
6000
3860
1FE0
0F80
ENDCHAR
STARTCHAR A
ENCODING 65
SWIDTH 731 0
DWIDTH 12 0
BBX 10 13 1 0
BITMAP
0100
0300
0700
0D80
0D80
1980
1B80
3F80
7D80
61C0
60C0
C0C0
C0C0
ENDCHAR
STARTCHAR B
ENCODING 66
SWIDTH 630 0
DWIDTH 11 0
BBX 9 13 1 0
BITMAP
F800
FE00
C700
C300
C300
C700
FE00
FF00
C380
C180
C780
FF00
FC00
ENDCHAR
STARTCHAR C
ENCODING 67
SWIDTH 602 0
DWIDTH 10 0
BBX 9 13 0 0
BITMAP
0F80
1F80
3980
3000
6000
6000
C000
C000
C000
C180
E380
7F00
3C00
ENDCHAR
STARTCHAR D
ENCODING 68
SWIDTH 721 0
DWIDTH 12 0
BBX 10 13 1 0
BITMAP
C000
F800
DE00
C700
C180
C1C0
C0C0
C0C0
C0C0
C1C0
C380
FF00
7E00
ENDCHAR
STARTCHAR E
ENCODING 69
SWIDTH 624 0
DWIDTH 11 0
BBX 9 13 1 0
BITMAP
FF80
FF80
C000
C000
C000
FF00
FF00
C000
C000
C000
C000
FF00
7F00
ENDCHAR
STARTCHAR F
ENCODING 70
SWIDTH 606 0
DWIDTH 10 0
BBX 9 13 1 0
BITMAP
FF00
FF80
C000
C000
C000
FF00
FF00
C000
C000
C000
C000
C000
C000
ENDCHAR
STARTCHAR G
ENCODING 71
SWIDTH 679 0
DWIDTH 12 0
BBX 11 13 0 0
BITMAP
0F00
1FC0
38C0
3000
6000
6000
DFE0
DFE0
C060
C0C0
E1C0
7F80
3E00
ENDCHAR
STARTCHAR H
ENCODING 72
SWIDTH 768 0
DWIDTH 13 0
BBX 11 13 1 0
BITMAP
C060
C060
C060
C060
C060
C060
C7E0
FFE0
F860
C060
C060
C060
C060
ENDCHAR
STARTCHAR I
ENCODING 73
SWIDTH 546 0
DWIDTH 9 0
BBX 8 13 0 0
BITMAP
FF
FF
18
18
18
18
18
18
18
18
18
FF
FF
ENDCHAR
STARTCHAR J
ENCODING 74
SWIDTH 665 0
DWIDTH 11 0
BBX 11 13 0 0
BITMAP
1FE0
1FE0
0300
0300
0300
0300
0300
0300
C300
C300
E700
7F00
1E00
ENDCHAR
STARTCHAR K
ENCODING 75
SWIDTH 610 0
DWIDTH 10 0
BBX 9 13 1 0
BITMAP
C080
C180
C300
C600
DC00
F800
F000
F000
D800
DC00
CE00
C780
C180
ENDCHAR
STARTCHAR L
ENCODING 76
SWIDTH 550 0
DWIDTH 9 0
BBX 7 13 1 0
BITMAP
C0
C0
C0
C0
C0
C0
C0
C0
C0
C0
C0
FE
FE
ENDCHAR
STARTCHAR M
ENCODING 77
SWIDTH 882 0
DWIDTH 15 0
BBX 13 13 1 0
BITMAP
1840
38E0
38E0
38E0
38A0
6CB0
6DB0
6DB0
6DB0
CDB0
C730
C718
C718
ENDCHAR
STARTCHAR N
ENCODING 78
SWIDTH 796 0
DWIDTH 14 0
BBX 12 13 1 0
BITMAP
C020
E030
E030
F030
D830
CC30
C630
C630
C330
C1B0
C0F0
C070
C030
ENDCHAR
STARTCHAR O
ENCODING 79
SWIDTH 798 0
DWIDTH 14 0
BBX 12 13 1 0
BITMAP
0F80
1FE0
3870
7030
6030
C030
C030
C030
C060
E060
70C0
3F80
1F00
ENDCHAR
STARTCHAR P
ENCODING 80
SWIDTH 520 0
DWIDTH 9 0
BBX 7 13 1 0
BITMAP
F8
FC
CE
C6
C6
CE
FC
F8
C0
C0
C0
C0
C0
ENDCHAR
STARTCHAR Q
ENCODING 81
SWIDTH 876 0
DWIDTH 15 0
BBX 13 17 1 -4
BITMAP
0FC0
1FE0
3870
6030
E038
C018
C018
C018
C218
6318
71B0
3FF0
0F60
0030
0038
0018
0008
ENDCHAR
STARTCHAR R
ENCODING 82
SWIDTH 628 0
DWIDTH 11 0
BBX 9 13 1 0
BITMAP
F000
FC00
CE00
C700
C300
C300
C700
FE00
F800
DC00
C700
C380
C180
ENDCHAR
STARTCHAR S
ENCODING 83
SWIDTH 693 0
DWIDTH 12 0
BBX 10 13 1 0
BITMAP
0F00
3F80
3000
6000
6000
7F00
3F80
01C0
00C0
C0C0
E1C0
7F80
3E00
ENDCHAR
STARTCHAR T
ENCODING 84
SWIDTH 679 0
DWIDTH 12 0
BBX 11 13 0 0
BITMAP
FFE0
FFE0
0C00
0C00
0C00
0C00
0C00
0C00
0C00
0C00
0C00
0C00
0C00
ENDCHAR
STARTCHAR U
ENCODING 85
SWIDTH 736 0
DWIDTH 13 0
BBX 11 13 1 0
BITMAP
C060
C060
C060
C060
C060
C060
C060
C060
C0C0
E0C0
71C0
7F80
1F00
ENDCHAR
STARTCHAR V
ENCODING 86
SWIDTH 649 0
DWIDTH 11 0
BBX 10 13 1 0
BITMAP
C0C0
C0C0
C180
6180
6180
6300
6300
3300
3600
3600
3600
1C00
1C00
ENDCHAR
STARTCHAR W
ENCODING 87
SWIDTH 1039 0
DWIDTH 17 0
BBX 16 13 1 0
BITMAP
C0C1
C1C3
E1C3
61C3
6363
6366
3366
3666
366C
166C
1C6C
1C78
1C38
ENDCHAR
STARTCHAR X
ENCODING 88
SWIDTH 723 0
DWIDTH 12 0
BBX 11 13 1 0
BITMAP
C060
E060
70C0
3980
1B80
0F00
0600
0F00
1B00
3180
60C0
E0E0
C060
ENDCHAR
STARTCHAR Y
ENCODING 89
SWIDTH 635 0
DWIDTH 11 0
BBX 10 13 0 0
BITMAP
C0C0
C0C0
6180
3180
3300
1B00
1B00
0E00
0600
0C00
0C00
1800
1800
ENDCHAR
STARTCHAR Z
ENCODING 90
SWIDTH 693 0
DWIDTH 12 0
BBX 11 13 1 0
BITMAP
FFE0
FFE0
01C0
0300
0600
0E00
0C00
1800
3000
6000
C000
FFE0
FFE0
ENDCHAR
STARTCHAR bracketleft
ENCODING 91
SWIDTH 376 0
DWIDTH 6 0
BBX 5 18 2 -4
BITMAP
F8
F8
C0
C0
C0
C0
C0
C0
C0
C0
C0
C0
C0
C0
C0
C0
F8
F8
ENDCHAR
STARTCHAR backslash
ENCODING 92
SWIDTH 549 0
DWIDTH 10 0
BBX 7 14 2 -1
BITMAP
C0
C0
60
60
30
30
10
18
18
0C
0C
0C
06
06
ENDCHAR
STARTCHAR bracketright
ENCODING 93
SWIDTH 376 0
DWIDTH 6 0
BBX 5 18 0 -4
BITMAP
F8
F8
18
18
18
18
18
18
18
18
18
18
18
18
18
18
F8
F8
ENDCHAR
STARTCHAR asciicircum
ENCODING 94
SWIDTH 581 0
DWIDTH 10 0
BBX 7 4 2 10
BITMAP
10
38
64
C2
ENDCHAR
STARTCHAR underscore
ENCODING 95
SWIDTH 626 0
DWIDTH 11 0
BBX 11 1 0 -3
BITMAP
FFE0
ENDCHAR
STARTCHAR grave
ENCODING 96
SWIDTH 556 0
DWIDTH 9 0
BBX 4 4 1 10
BITMAP
C0
60
30
30
ENDCHAR
STARTCHAR a
ENCODING 97
SWIDTH 511 0
DWIDTH 9 0
BBX 8 9 1 0
BITMAP
1E
7E
66
C6
C6
C6
C6
7F
39
ENDCHAR
STARTCHAR b
ENCODING 98
SWIDTH 593 0
DWIDTH 10 0
BBX 8 14 1 0
BITMAP
C0
C0
C0
C0
C0
DC
FE
E7
C3
C3
C3
C7
FE
FC
ENDCHAR
STARTCHAR c
ENCODING 99
SWIDTH 513 0
DWIDTH 9 0
BBX 7 9 1 0
BITMAP
3C
7E
66
C0
C0
C0
E6
7E
3C
ENDCHAR
STARTCHAR d
ENCODING 100
SWIDTH 587 0
DWIDTH 10 0
BBX 8 14 1 0
BITMAP
03
03
03
03
03
3F
7F
E3
C3
C3
C3
E7
7F
3F
ENDCHAR
STARTCHAR e
ENCODING 101
SWIDTH 547 0
DWIDTH 10 0
BBX 8 9 1 0
BITMAP
3E
7F
63
CF
FC
F0
E1
7F
3C
ENDCHAR
STARTCHAR f
ENCODING 102
SWIDTH 508 0
DWIDTH 9 0
BBX 7 14 1 0
BITMAP
0E
1E
38
30
30
FE
FE
30
30
30
30
30
30
30
ENDCHAR
STARTCHAR g
ENCODING 103
SWIDTH 530 0
DWIDTH 9 0
BBX 7 14 1 -5
BITMAP
3C
7E
66
C6
C6
C6
CE
7E
76
06
06
0C
FC
F8
ENDCHAR
STARTCHAR h
ENCODING 104
SWIDTH 577 0
DWIDTH 9 0
BBX 7 14 1 0
BITMAP
C0
C0
C0
C0
C0
DC
FE
E6
C6
C6
C6
C6
C6
C6
ENDCHAR
STARTCHAR i
ENCODING 105
SWIDTH 280 0
DWIDTH 4 0
BBX 2 13 1 0
BITMAP
C0
C0
00
00
C0
C0
C0
C0
C0
C0
C0
C0
C0
ENDCHAR
STARTCHAR j
ENCODING 106
SWIDTH 403 0
DWIDTH 7 0
BBX 6 18 -1 -5
BITMAP
0C
0C
00
00
0C
0C
0C
0C
0C
0C
0C
0C
0C
0C
CC
CC
7C
38
ENDCHAR
STARTCHAR k
ENCODING 107
SWIDTH 540 0
DWIDTH 10 0
BBX 8 14 1 0
BITMAP
C0
C0
C0
C0
C0
C3
C6
CC
D8
F8
EC
C6
C3
C3
ENDCHAR
STARTCHAR l
ENCODING 108
SWIDTH 273 0
DWIDTH 5 0
BBX 2 14 2 0
BITMAP
C0
C0
C0
C0
C0
C0
C0
C0
C0
C0
C0
C0
C0
C0
ENDCHAR
STARTCHAR m
ENCODING 109
SWIDTH 776 0
DWIDTH 13 0
BBX 11 9 1 0
BITMAP
CDC0
DFE0
F760
E660
C660
C660
C660
C660
C660
ENDCHAR
STARTCHAR n
ENCODING 110
SWIDTH 523 0
DWIDTH 9 0
BBX 7 9 1 0
BITMAP
DC
FE
E6
C6
C6
C6
C6
C6
C6
ENDCHAR
STARTCHAR o
ENCODING 111
SWIDTH 525 0
DWIDTH 10 0
BBX 8 9 1 0
BITMAP
3C
7E
67
C3
C3
C3
E7
7E
3C
ENDCHAR
STARTCHAR p
ENCODING 112
SWIDTH 534 0
DWIDTH 9 0
BBX 7 15 1 -5
BITMAP
C0
DC
FC
E6
C6
C6
C6
CE
FC
F8
C0
C0
C0
C0
C0
ENDCHAR
STARTCHAR q
ENCODING 113
SWIDTH 520 0
DWIDTH 9 0
BBX 7 14 1 -5
BITMAP
1E
7E
66
C6
C6
C6
C6
7E
3E
06
06
06
06
06
ENDCHAR
STARTCHAR r
ENCODING 114
SWIDTH 480 0
DWIDTH 8 0
BBX 6 9 1 0
BITMAP
DC
FC
EC
CC
C0
C0
C0
C0
C0
ENDCHAR
STARTCHAR s
ENCODING 115
SWIDTH 486 0
DWIDTH 8 0
BBX 6 9 1 0
BITMAP
1C
7C
EC
C0
F8
3C
0C
FC
F8
ENDCHAR
STARTCHAR t
ENCODING 116
SWIDTH 471 0
DWIDTH 8 0
BBX 6 12 1 0
BITMAP
30
30
30
FC
FC
30
30
30
30
30
30
30
ENDCHAR
STARTCHAR u
ENCODING 117
SWIDTH 520 0
DWIDTH 9 0
BBX 7 9 1 0
BITMAP
C6
C6
C6
C6
C6
C6
C6
FE
7E
ENDCHAR
STARTCHAR v
ENCODING 118
SWIDTH 486 0
DWIDTH 8 0
BBX 8 9 0 0
BITMAP
C3
C3
62
66
66
3C
3C
38
18
ENDCHAR
STARTCHAR w
ENCODING 119
SWIDTH 684 0
DWIDTH 13 0
BBX 11 9 1 0
BITMAP
C660
C660
CE60
CEC0
6EC0
6AC0
7AC0
7380
3380
ENDCHAR
STARTCHAR x
ENCODING 120
SWIDTH 590 0
DWIDTH 10 0
BBX 9 9 0 0
BITMAP
C180
E380
7700
3E00
1C00
3E00
7700
E380
C180
ENDCHAR
STARTCHAR y
ENCODING 121
SWIDTH 520 0
DWIDTH 9 0
BBX 9 14 0 -5
BITMAP
C180
C180
6300
6300
3600
3600
1C00
1C00
1800
1800
1000
3000
3000
2000
ENDCHAR
STARTCHAR z
ENCODING 122
SWIDTH 538 0
DWIDTH 10 0
BBX 8 9 1 0
BITMAP
FF
FF
0E
0C
1C
38
70
FF
FF
ENDCHAR
STARTCHAR braceleft
ENCODING 123
SWIDTH 366 0
DWIDTH 6 0
BBX 6 18 0 -4
BITMAP
1C
3C
60
60
60
60
60
60
E0
C0
E0
60
60
60
60
70
3C
1C
ENDCHAR
STARTCHAR bar
ENCODING 124
SWIDTH 421 0
DWIDTH 7 0
BBX 2 17 3 -3
BITMAP
C0
C0
C0
C0
C0
C0
C0
C0
C0
C0
C0
C0
C0
C0
C0
C0
C0
ENDCHAR
STARTCHAR braceright
ENCODING 125
SWIDTH 366 0
DWIDTH 6 0
BBX 6 18 0 -4
BITMAP
E0
F0
30
30
30
30
30
30
38
1C
38
30
30
30
30
30
E0
E0
ENDCHAR
STARTCHAR asciitilde
ENCODING 126
SWIDTH 597 0
DWIDTH 11 0
BBX 9 5 1 4
BITMAP
3000
7880
4D80
CF80
8700
ENDCHAR
STARTCHAR uni00A0
ENCODING 160
SWIDTH 298 0
DWIDTH 5 0
BBX 1 1 0 0
BITMAP
00
ENDCHAR
STARTCHAR exclamdown
ENCODING 161
SWIDTH 237 0
DWIDTH 4 0
BBX 2 14 1 -1
BITMAP
C0
C0
00
C0
C0
C0
C0
C0
C0
C0
C0
C0
C0
C0
ENDCHAR
STARTCHAR cent
ENCODING 162
SWIDTH 623 0
DWIDTH 11 0
BBX 9 14 1 0
BITMAP
0C00
0C00
1E80
3F80
6D80
CC00
CC00
CC00
CC80
ED80
7F00
1E00
0C00
0C00
ENDCHAR
STARTCHAR sterling
ENCODING 163
SWIDTH 793 0
DWIDTH 13 0
BBX 12 16 0 -2
BITMAP
07C0
1FE0
1860
3800
3000
3000
FF80
FF80
1000
1800
1800
1800
1810
3E30
3FF0
01E0
ENDCHAR
STARTCHAR currency
ENCODING 164
SWIDTH 611 0
DWIDTH 10 0
BBX 11 11 0 1
BITMAP
6000
7060
3FE0
3FC0
3180
3180
3180
7F00
EF80
C1C0
00C0
ENDCHAR
STARTCHAR yen
ENCODING 165
SWIDTH 635 0
DWIDTH 11 0
BBX 10 13 1 0
BITMAP
C0C0
E0C0
61C0
7180
7380
FBC0
FFC0
0C00
3F00
3F00
0C00
0C00
0C00
ENDCHAR
STARTCHAR brokenbar
ENCODING 166
SWIDTH 404 0
DWIDTH 7 0
BBX 2 14 2 0
BITMAP
C0
C0
C0
C0
C0
C0
00
00
C0
C0
C0
C0
C0
C0
ENDCHAR
STARTCHAR section
ENCODING 167
SWIDTH 634 0
DWIDTH 11 0
BBX 8 13 1 0
BITMAP
3E
7F
63
60
78
CE
C3
7B
06
83
C3
7F
3E
ENDCHAR
STARTCHAR dieresis
ENCODING 168
SWIDTH 556 0
DWIDTH 9 0
BBX 6 2 2 10
BITMAP
CC
CC
ENDCHAR
STARTCHAR copyright
ENCODING 169
SWIDTH 795 0
DWIDTH 14 0
BBX 12 13 1 1
BITMAP
0F80
1FC0
3860
6730
EF30
DC30
D830
D8B0
DFF0
EF60
70C0
3FC0
1F00
ENDCHAR
STARTCHAR ordfeminine
ENCODING 170
SWIDTH 526 0
DWIDTH 9 0
BBX 7 7 1 6
BITMAP
78
7C
CC
CC
D6
76
66
ENDCHAR
STARTCHAR guillemotleft
ENCODING 171
SWIDTH 577 0
DWIDTH 10 0
BBX 9 7 0 2
BITMAP
1980
3300
6600
CC00
6600
3300
1980
ENDCHAR
STARTCHAR logicalnot
ENCODING 172
SWIDTH 480 0
DWIDTH 8 0
BBX 7 4 0 2
BITMAP
FE
FE
06
06
ENDCHAR
STARTCHAR uni00AD
ENCODING 173
SWIDTH 416 0
DWIDTH 7 0
BBX 5 2 1 4
BITMAP
F8
F8
ENDCHAR
STARTCHAR registered
ENCODING 174
SWIDTH 795 0
DWIDTH 14 0
BBX 12 13 1 1
BITMAP
0F80
3FC0
70E0
7E70
DF30
D930
DE30
DC30
DB70
F960
70E0
3FC0
1F00
ENDCHAR
STARTCHAR macron
ENCODING 175
SWIDTH 626 0
DWIDTH 11 0
BBX 11 1 0 14
BITMAP
FFE0
ENDCHAR
STARTCHAR degree
ENCODING 176
SWIDTH 409 0
DWIDTH 8 0
BBX 6 6 1 8
BITMAP
78
FC
CC
CC
FC
78
ENDCHAR
STARTCHAR plusminus
ENCODING 177
SWIDTH 480 0
DWIDTH 8 0
BBX 8 11 0 -1
BITMAP
18
18
18
FF
FF
18
18
18
00
FF
FF
ENDCHAR
STARTCHAR uni00B2
ENCODING 178
SWIDTH 650 0
DWIDTH 11 0
BBX 5 7 3 8
BITMAP
70
F8
18
10
60
F8
F8
ENDCHAR
STARTCHAR uni00B3
ENCODING 179
SWIDTH 650 0
DWIDTH 11 0
BBX 5 7 3 7
BITMAP
F0
F8
18
30
18
F8
F0
ENDCHAR
STARTCHAR acute
ENCODING 180
SWIDTH 556 0
DWIDTH 9 0
BBX 4 4 2 10
BITMAP
30
60
C0
80
ENDCHAR
STARTCHAR mu
ENCODING 181
SWIDTH 520 0
DWIDTH 9 0
BBX 10 12 -1 -3
BITMAP
30C0
30C0
2080
6180
6180
6180
6100
7F00
7F00
C000
C000
C000
ENDCHAR
STARTCHAR paragraph
ENCODING 182
SWIDTH 693 0
DWIDTH 12 0
BBX 10 15 1 -2
BITMAP
03C0
1FC0
36C0
66C0
C6C0
C6C0
C6C0
EEC0
7F80
3D80
0D80
0D80
1F80
1B00
1B00
ENDCHAR
STARTCHAR periodcentered
ENCODING 183
SWIDTH 249 0
DWIDTH 4 0
BBX 2 2 1 6
BITMAP
C0
C0
ENDCHAR
STARTCHAR cedilla
ENCODING 184
SWIDTH 556 0
DWIDTH 9 0
BBX 4 4 2 -4
BITMAP
70
30
30
F0
ENDCHAR
STARTCHAR uni00B9
ENCODING 185
SWIDTH 650 0
DWIDTH 11 0
BBX 4 6 4 8
BITMAP
60
E0
60
60
F0
F0
ENDCHAR
STARTCHAR ordmasculine
ENCODING 186
SWIDTH 449 0
DWIDTH 8 0
BBX 7 7 0 7
BITMAP
38
7C
C6
C6
CE
7C
3C
ENDCHAR
STARTCHAR guillemotright
ENCODING 187
SWIDTH 577 0
DWIDTH 10 0
BBX 9 7 0 2
BITMAP
CC00
6600
3300
1980
3300
6600
CC00
ENDCHAR
STARTCHAR onequarter
ENCODING 188
SWIDTH 650 0
DWIDTH 11 0
BBX 9 19 1 -3
BITMAP
0C00
3C00
0C00
0C00
0C00
0C00
1E00
1E00
0000
FF80
FF80
0000
0C00
0C00
1C00
2C00
7E00
0C00
0C00
ENDCHAR
STARTCHAR onehalf
ENCODING 189
SWIDTH 650 0
DWIDTH 11 0
BBX 9 19 1 -3
BITMAP
0C00
3C00
0C00
0C00
0C00
0C00
1E00
1E00
0000
FF80
FF80
0000
1C00
3E00
2600
0400
1800
3E00
3E00
ENDCHAR
STARTCHAR threequarters
ENCODING 190
SWIDTH 650 0
DWIDTH 11 0
BBX 9 18 1 -3
BITMAP
3C00
3E00
0600
1E00
0600
3E00
3C00
0000
FF80
FF80
0000
0C00
0C00
1C00
2C00
7E00
0C00
0C00
ENDCHAR
ENDFONT
